# Blender v2.93.0 OBJ File: 'models.blend'
# www.blender.org
mtllib m3.mtl
o m3_Plane.001
v -3.000000 0.000000 9.999999
v 3.000000 0.000000 9.999999
v -3.000000 0.000000 -9.999999
v 3.000000 0.000000 -9.999999
v -2.398771 0.000000 -9.391299
v -2.398771 0.000000 9.441228
v 2.398771 0.000000 9.441228
v 2.398771 0.000000 -9.391299
v -2.398771 0.500000 -9.391299
v -2.398771 0.500000 9.441228
v 2.398771 0.500000 9.441228
v 2.398771 0.500000 -9.391299
v -3.000000 0.500000 -9.999999
v -3.000000 0.500000 9.999999
v 3.000000 0.500000 9.999999
v 3.000000 0.500000 -9.999999
vt 0.051454 0.015436
vt 0.000000 0.000000
vt 0.000000 1.000000
vt 0.051454 0.984564
vt 0.948546 0.015436
vt 1.000000 0.000000
vt 0.948546 0.984564
vt 1.000000 1.000000
vt 0.051454 0.015436
vt 0.051454 0.984564
vt 0.000000 1.000000
vt 0.000000 0.000000
vt 0.948546 0.015436
vt 1.000000 0.000000
vt 0.948546 0.984564
vt 1.000000 1.000000
vn 0.0000 -1.0000 0.0000
vn 0.0000 1.0000 0.0000
vn 1.0000 0.0000 0.0000
vn 0.0000 0.0000 -1.0000
vn 0.0000 0.0000 1.0000
vn -1.0000 0.0000 0.0000
usemtl None
s off
f 6/1/1 1/2/1 3/3/1 5/4/1
f 7/5/1 2/6/1 1/2/1 6/1/1
f 8/7/1 4/8/1 2/6/1 7/5/1
f 5/4/1 3/3/1 4/8/1 8/7/1
f 10/9/2 9/10/2 13/11/2 14/12/2
f 11/13/2 10/9/2 14/12/2 15/14/2
f 12/15/2 11/13/2 15/14/2 16/16/2
f 9/10/2 12/15/2 16/16/2 13/11/2
f 6/1/3 5/4/3 9/10/3 10/9/3
f 4/8/4 3/3/4 13/11/4 16/16/4
f 1/2/5 2/6/5 15/14/5 14/12/5
f 5/4/5 8/7/5 12/15/5 9/10/5
f 7/5/4 6/1/4 10/9/4 11/13/4
f 2/6/3 4/8/3 16/16/3 15/14/3
f 3/3/6 1/2/6 14/12/6 13/11/6
f 8/7/6 7/5/6 11/13/6 12/15/6
