# Blender v2.93.0 OBJ File: 'models.blend'
# www.blender.org
mtllib m5.mtl
o m5_BezierCurve
v -2.925000 0.000000 8.892000
v 2.925001 -0.000000 8.892000
v -2.925000 0.764436 8.115076
v 2.925000 0.764435 8.115076
v -2.925000 1.342860 7.361928
v 2.925000 1.342859 7.361927
v -2.925000 1.751573 6.629736
v 2.925001 1.751572 6.629736
v -2.925000 2.006876 5.915688
v 2.925000 2.006875 5.915688
v -2.925000 2.125069 5.216966
v 2.925001 2.125068 5.216965
v -2.925000 2.122454 4.530755
v 2.925001 2.122453 4.530755
v -2.925000 2.015331 3.854239
v 2.925001 2.015330 3.854238
v -2.925000 1.820000 3.184600
v 2.925000 1.819999 3.184600
v -2.925000 1.552763 2.519025
v 2.925000 1.552763 2.519024
v -2.925000 1.229921 1.854696
v 2.925000 1.229920 1.854695
v -2.925000 0.867774 1.188797
v 2.925000 0.867774 1.188796
v -2.925000 0.482623 0.518512
v 2.925000 0.482623 0.518512
v -2.925000 0.090770 -0.158973
v 2.925000 0.090769 -0.158974
v -2.925001 -0.291487 -0.846476
v 2.925000 -0.291488 -0.846477
v -2.925000 -0.647845 -1.546813
v 2.925000 -0.647846 -1.546814
v -2.925001 -0.962004 -2.262800
v 2.925000 -0.962004 -2.262800
v -2.925001 -1.217663 -2.997252
v 2.925000 -1.217663 -2.997252
v -2.925000 -1.398521 -3.752985
v 2.925000 -1.398521 -3.752986
v -2.925001 -1.488277 -4.532817
v 2.925000 -1.488278 -4.532817
v -2.925000 -1.470632 -5.339562
v 2.924999 -1.470632 -5.339562
v -2.925001 -1.329283 -6.176037
v 2.925000 -1.329284 -6.176037
v -2.925000 -1.047930 -7.045057
v 2.925000 -1.047931 -7.045057
v -2.925000 -0.610273 -7.949439
v 2.925000 -0.610274 -7.949439
v -2.925001 0.000000 -8.892000
v 2.925000 -0.000000 -8.892000
v -2.925000 0.042217 8.939137
v 2.925001 0.042217 8.939137
v -2.925000 0.856653 8.102213
v 2.925000 0.856652 8.102213
v -2.925000 1.435077 7.349064
v 2.925000 1.435076 7.349062
v -2.925000 1.843790 6.616873
v 2.925001 1.843790 6.616873
v -2.925000 2.099092 5.902824
v 2.925000 2.099092 5.902824
v -2.925000 2.217286 5.204103
v 2.925001 2.217285 5.204102
v -2.925000 2.214670 4.517892
v 2.925001 2.214670 4.517891
v -2.925000 2.107548 3.841375
v 2.925001 2.107547 3.841374
v -2.925000 1.912217 3.171737
v 2.925000 1.912217 3.171737
v -2.925000 1.644980 2.506161
v 2.925001 1.644979 2.506160
v -2.925000 1.322138 1.841832
v 2.925000 1.322137 1.841831
v -2.925000 0.959991 1.175933
v 2.925000 0.959991 1.175933
v -2.925000 0.574840 0.505649
v 2.925000 0.574840 0.505648
v -2.925000 0.182987 -0.171837
v 2.925000 0.182986 -0.171837
v -2.925001 -0.199270 -0.859340
v 2.925000 -0.199271 -0.859341
v -2.925000 -0.555628 -1.559677
v 2.925000 -0.555629 -1.559677
v -2.925001 -0.869787 -2.275663
v 2.925000 -0.869787 -2.275664
v -2.925001 -1.125445 -3.010115
v 2.925000 -1.125446 -3.010116
v -2.925000 -1.306304 -3.765849
v 2.925000 -1.306304 -3.765850
v -2.925001 -1.396060 -4.545680
v 2.925000 -1.396061 -4.545681
v -2.925000 -1.378415 -5.352426
v 2.924999 -1.378415 -5.352426
v -2.925001 -1.237066 -6.188900
v 2.925000 -1.237067 -6.188900
v -2.925000 -0.955713 -7.057921
v 2.925000 -0.955714 -7.057921
v -2.925000 -0.518056 -7.962303
v 2.925000 -0.518057 -7.962303
v -2.925001 0.061529 -8.841132
v 2.925000 0.061528 -8.841132
vt 0.000000 1.000000
vt 0.000000 0.000000
vt 0.041667 0.000000
vt 0.041667 1.000000
vt 0.083333 0.000000
vt 0.083333 1.000000
vt 0.125000 0.000000
vt 0.125000 1.000000
vt 0.166667 0.000000
vt 0.166667 1.000000
vt 0.208333 0.000000
vt 0.208333 1.000000
vt 0.250000 0.000000
vt 0.250000 1.000000
vt 0.291667 0.000000
vt 0.291667 1.000000
vt 0.333333 0.000000
vt 0.333333 1.000000
vt 0.375000 0.000000
vt 0.375000 1.000000
vt 0.416667 0.000000
vt 0.416667 1.000000
vt 0.458333 0.000000
vt 0.458333 1.000000
vt 0.500000 0.000000
vt 0.500000 1.000000
vt 0.541667 0.000000
vt 0.541667 1.000000
vt 0.583333 0.000000
vt 0.583333 1.000000
vt 0.625000 0.000000
vt 0.625000 1.000000
vt 0.666667 0.000000
vt 0.666667 1.000000
vt 0.708333 0.000000
vt 0.708333 1.000000
vt 0.750000 0.000000
vt 0.750000 1.000000
vt 0.791667 0.000000
vt 0.791667 1.000000
vt 0.833333 0.000000
vt 0.833333 1.000000
vt 0.875000 0.000000
vt 0.875000 1.000000
vt 0.916667 0.000000
vt 0.916667 1.000000
vt 0.958333 0.000000
vt 0.958333 1.000000
vt 1.000000 0.000000
vt 1.000000 1.000000
vt 0.000000 1.000000
vt 0.041667 1.000000
vt 0.041667 0.000000
vt 0.000000 0.000000
vt 0.083333 1.000000
vt 0.083333 0.000000
vt 0.125000 1.000000
vt 0.125000 0.000000
vt 0.166667 1.000000
vt 0.166667 0.000000
vt 0.208333 1.000000
vt 0.208333 0.000000
vt 0.250000 1.000000
vt 0.250000 0.000000
vt 0.291667 1.000000
vt 0.291667 0.000000
vt 0.333333 1.000000
vt 0.333333 0.000000
vt 0.375000 1.000000
vt 0.375000 0.000000
vt 0.416667 1.000000
vt 0.416667 0.000000
vt 0.458333 1.000000
vt 0.458333 0.000000
vt 0.500000 1.000000
vt 0.500000 0.000000
vt 0.541667 1.000000
vt 0.541667 0.000000
vt 0.583333 1.000000
vt 0.583333 0.000000
vt 0.625000 1.000000
vt 0.625000 0.000000
vt 0.666667 1.000000
vt 0.666667 0.000000
vt 0.708333 1.000000
vt 0.708333 0.000000
vt 0.750000 1.000000
vt 0.750000 0.000000
vt 0.791667 1.000000
vt 0.791667 0.000000
vt 0.833333 1.000000
vt 0.833333 0.000000
vt 0.875000 1.000000
vt 0.875000 0.000000
vt 0.916667 1.000000
vt 0.916667 0.000000
vt 0.958333 1.000000
vt 0.958333 0.000000
vt 1.000000 1.000000
vt 1.000000 0.000000
vn -0.0000 -0.7128 -0.7014
vn -0.0000 -0.7544 -0.6565
vn -0.0000 -0.8354 -0.5497
vn -0.0000 -0.9105 -0.4135
vn -0.0000 -0.9675 -0.2527
vn -0.0000 -0.9966 -0.0818
vn -0.0000 -0.9968 0.0803
vn -0.0000 -0.9758 0.2187
vn -0.0000 -0.9451 0.3267
vn -0.0000 -0.9143 0.4051
vn -0.0000 -0.8892 0.4575
vn -0.0000 -0.8728 0.4880
vn -0.0000 -0.8663 0.4994
vn -0.0000 -0.8698 0.4933
vn -0.0000 -0.8828 0.4698
vn -0.0000 -0.9039 0.4278
vn -0.0000 -0.9308 0.3656
vn -0.0000 -0.9597 0.2811
vn -0.0000 -0.9848 0.1739
vn -0.0000 -0.9989 0.0463
vn -0.0000 -0.9955 -0.0945
vn -0.0000 -0.9713 -0.2379
vn -0.0000 -0.9280 -0.3727
vn -0.0000 -0.8714 -0.4905
vn -0.0000 -0.8394 -0.5435
vn 0.0000 0.7167 0.6974
vn 0.0000 0.7562 0.6544
vn 0.0000 0.8354 0.5497
vn 0.0000 0.9105 0.4135
vn 0.0000 0.9675 0.2527
vn 0.0000 0.9966 0.0818
vn 0.0000 0.9968 -0.0803
vn 0.0000 0.9758 -0.2186
vn 0.0000 0.9451 -0.3267
vn 0.0000 0.9143 -0.4051
vn 0.0000 0.8892 -0.4575
vn 0.0000 0.8728 -0.4880
vn 0.0000 0.8663 -0.4994
vn 0.0000 0.8698 -0.4933
vn 0.0000 0.8828 -0.4698
vn 0.0000 0.9039 -0.4278
vn 0.0000 0.9308 -0.3656
vn 0.0000 0.9597 -0.2811
vn 0.0000 0.9848 -0.1739
vn 0.0000 0.9989 -0.0463
vn 0.0000 0.9955 0.0945
vn 0.0000 0.9713 0.2379
vn 0.0000 0.9280 0.3727
vn 0.0000 0.8694 0.4942
vn 0.0000 0.8348 0.5505
vn 1.0000 0.0000 0.0000
vn -1.0000 0.0000 -0.0000
vn -0.0000 -0.7449 0.6672
vn -0.0000 0.6372 -0.7707
usemtl None
s 1
f 2/1/1 1/2/1 3/3/2 4/4/2
f 4/4/2 3/3/2 5/5/3 6/6/3
f 6/6/3 5/5/3 7/7/4 8/8/4
f 8/8/4 7/7/4 9/9/5 10/10/5
f 10/10/5 9/9/5 11/11/6 12/12/6
f 12/12/6 11/11/6 13/13/7 14/14/7
f 14/14/7 13/13/7 15/15/8 16/16/8
f 16/16/8 15/15/8 17/17/9 18/18/9
f 18/18/9 17/17/9 19/19/10 20/20/10
f 20/20/10 19/19/10 21/21/11 22/22/11
f 22/22/11 21/21/11 23/23/12 24/24/12
f 24/24/12 23/23/12 25/25/13 26/26/13
f 26/26/13 25/25/13 27/27/14 28/28/14
f 28/28/14 27/27/14 29/29/15 30/30/15
f 30/30/15 29/29/15 31/31/16 32/32/16
f 32/32/16 31/31/16 33/33/17 34/34/17
f 34/34/17 33/33/17 35/35/18 36/36/18
f 36/36/18 35/35/18 37/37/19 38/38/19
f 38/38/19 37/37/19 39/39/20 40/40/20
f 40/40/20 39/39/20 41/41/21 42/42/21
f 42/42/21 41/41/21 43/43/22 44/44/22
f 44/44/22 43/43/22 45/45/23 46/46/23
f 46/46/23 45/45/23 47/47/24 48/48/24
f 48/48/24 47/47/24 49/49/25 50/50/25
f 52/51/26 54/52/27 53/53/27 51/54/26
f 54/52/27 56/55/28 55/56/28 53/53/27
f 56/55/28 58/57/29 57/58/29 55/56/28
f 58/57/29 60/59/30 59/60/30 57/58/29
f 60/59/30 62/61/31 61/62/31 59/60/30
f 62/61/31 64/63/32 63/64/32 61/62/31
f 64/63/32 66/65/33 65/66/33 63/64/32
f 66/65/33 68/67/34 67/68/34 65/66/33
f 68/67/34 70/69/35 69/70/35 67/68/34
f 70/69/35 72/71/36 71/72/36 69/70/35
f 72/71/36 74/73/37 73/74/37 71/72/36
f 74/73/37 76/75/38 75/76/38 73/74/37
f 76/75/38 78/77/39 77/78/39 75/76/38
f 78/77/39 80/79/40 79/80/40 77/78/39
f 80/79/40 82/81/41 81/82/41 79/80/40
f 82/81/41 84/83/42 83/84/42 81/82/41
f 84/83/42 86/85/43 85/86/43 83/84/42
f 86/85/43 88/87/44 87/88/44 85/86/43
f 88/87/44 90/89/45 89/90/45 87/88/44
f 90/89/45 92/91/46 91/92/46 89/90/45
f 92/91/46 94/93/47 93/94/47 91/92/46
f 94/93/47 96/95/48 95/96/48 93/94/47
f 96/95/48 98/97/49 97/98/49 95/96/48
f 98/97/49 100/99/50 99/100/50 97/98/49
f 8/8/51 10/10/51 60/59/51 58/57/51
f 26/26/51 28/28/51 78/77/51 76/75/51
f 44/44/51 46/46/51 96/95/51 94/93/51
f 17/17/52 15/15/52 65/66/52 67/68/52
f 35/35/52 33/33/52 83/84/52 85/86/52
f 18/18/51 20/20/51 70/69/51 68/67/51
f 36/36/51 38/38/51 88/87/51 86/85/51
f 9/9/52 7/7/52 57/58/52 59/60/52
f 27/27/52 25/25/52 75/76/52 77/78/52
f 45/45/52 43/43/52 93/94/52 95/96/52
f 10/10/51 12/12/51 62/61/51 60/59/51
f 28/28/51 30/30/51 80/79/51 78/77/51
f 46/46/51 48/48/51 98/97/51 96/95/51
f 1/2/53 2/1/53 52/51/53 51/54/53
f 19/19/52 17/17/52 67/68/52 69/70/52
f 37/37/52 35/35/52 85/86/52 87/88/52
f 2/1/51 4/4/51 54/52/51 52/51/51
f 20/20/51 22/22/51 72/71/51 70/69/51
f 38/38/51 40/40/51 90/89/51 88/87/51
f 11/11/52 9/9/52 59/60/52 61/62/52
f 29/29/52 27/27/52 77/78/52 79/80/52
f 47/47/52 45/45/52 95/96/52 97/98/52
f 12/12/51 14/14/51 64/63/51 62/61/51
f 30/30/51 32/32/51 82/81/51 80/79/51
f 48/48/51 50/50/51 100/99/51 98/97/51
f 3/3/52 1/2/52 51/54/52 53/53/52
f 21/21/52 19/19/52 69/70/52 71/72/52
f 39/39/52 37/37/52 87/88/52 89/90/52
f 50/50/54 49/49/54 99/100/54 100/99/54
f 4/4/51 6/6/51 56/55/51 54/52/51
f 22/22/51 24/24/51 74/73/51 72/71/51
f 40/40/51 42/42/51 92/91/51 90/89/51
f 13/13/52 11/11/52 61/62/52 63/64/52
f 31/31/52 29/29/52 79/80/52 81/82/52
f 49/49/52 47/47/52 97/98/52 99/100/52
f 14/14/51 16/16/51 66/65/51 64/63/51
f 32/32/51 34/34/51 84/83/51 82/81/51
f 5/5/52 3/3/52 53/53/52 55/56/52
f 23/23/52 21/21/52 71/72/52 73/74/52
f 41/41/52 39/39/52 89/90/52 91/92/52
f 6/6/51 8/8/51 58/57/51 56/55/51
f 24/24/51 26/26/51 76/75/51 74/73/51
f 42/42/51 44/44/51 94/93/51 92/91/51
f 15/15/52 13/13/52 63/64/52 65/66/52
f 33/33/52 31/31/52 81/82/52 83/84/52
f 16/16/51 18/18/51 68/67/51 66/65/51
f 34/34/51 36/36/51 86/85/51 84/83/51
f 7/7/52 5/5/52 55/56/52 57/58/52
f 25/25/52 23/23/52 73/74/52 75/76/52
f 43/43/52 41/41/52 91/92/52 93/94/52
