# Blender v2.93.0 OBJ File: 'models.blend'
# www.blender.org
mtllib m8.mtl
o m8_BezierCurve.002
v -2.953713 0.000000 8.979287
v 2.953714 -0.000000 8.979287
v -2.953712 0.294559 8.113420
v 2.953713 0.294558 8.113420
v -2.953713 0.559064 7.261232
v 2.953713 0.559064 7.261232
v -2.953713 0.794121 6.422252
v 2.953713 0.794121 6.422252
v -2.953713 1.000336 5.596009
v 2.953714 1.000335 5.596009
v -2.953712 1.178313 4.782032
v 2.953713 1.178312 4.782032
v -2.953713 1.328659 3.979851
v 2.953714 1.328658 3.979850
v -2.953713 1.451978 3.188993
v 2.953713 1.451977 3.188993
v -2.953713 1.548876 2.408989
v 2.953713 1.548875 2.408988
v -2.953713 1.619958 1.639367
v 2.953713 1.619958 1.639366
v -2.953713 1.665831 0.879657
v 2.953713 1.665830 0.879656
v -2.953713 1.687099 0.129387
v 2.953713 1.687098 0.129386
v -2.953714 1.684367 -0.611913
v 2.953713 1.684366 -0.611914
v -2.953714 1.658241 -1.344714
v 2.953713 1.658240 -1.344715
v -2.953714 1.609326 -2.069487
v 2.953713 1.609326 -2.069488
v -2.953714 1.538229 -2.786704
v 2.953713 1.538228 -2.786704
v -2.953713 1.445553 -3.496834
v 2.953713 1.445553 -3.496835
v -2.953714 1.331906 -4.200349
v 2.953713 1.331905 -4.200349
v -2.953714 1.197891 -4.897720
v 2.953713 1.197891 -4.897720
v -2.953714 1.044115 -5.589418
v 2.953713 1.044114 -5.589418
v -2.953714 0.871183 -6.275913
v 2.953713 0.871182 -6.275913
v -2.953713 0.679700 -6.957676
v 2.953712 0.679699 -6.957676
v -2.953713 0.470271 -7.635180
v 2.953713 0.470270 -7.635180
v -2.953713 0.243503 -8.308893
v 2.953713 0.243502 -8.308893
v -2.953713 0.000000 -8.979287
v 2.953712 -0.000000 -8.979287
v -2.362970 0.190257 8.420020
v 2.362971 0.190256 8.420020
v 2.362971 0.294558 8.113420
v -2.362970 0.294559 8.113420
v 2.362971 0.559064 7.261232
v -2.362971 0.559064 7.261232
v 2.362971 0.794121 6.422252
v -2.362970 0.794121 6.422252
v 2.362971 1.000335 5.596009
v -2.362971 1.000336 5.596009
v 2.362970 1.178312 4.782032
v -2.362970 1.178313 4.782032
v 2.362971 1.328658 3.979850
v -2.362971 1.328659 3.979850
v 2.362971 1.451977 3.188993
v -2.362970 1.451978 3.188993
v 2.362971 1.548875 2.408988
v -2.362970 1.548876 2.408989
v 2.362970 1.619958 1.639367
v -2.362970 1.619958 1.639367
v 2.362970 1.665830 0.879656
v -2.362970 1.665831 0.879657
v 2.362970 1.687098 0.129386
v -2.362970 1.687099 0.129387
v 2.362970 1.684366 -0.611914
v -2.362971 1.684367 -0.611913
v 2.362970 1.658240 -1.344715
v -2.362971 1.658241 -1.344714
v 2.362970 1.609326 -2.069488
v -2.362971 1.609326 -2.069488
v 2.362971 1.538228 -2.786704
v -2.362972 1.538229 -2.786704
v 2.362970 1.445553 -3.496834
v -2.362971 1.445553 -3.496834
v 2.362971 1.331905 -4.200349
v -2.362972 1.331906 -4.200349
v 2.362970 1.197891 -4.897720
v -2.362971 1.197891 -4.897720
v 2.362970 1.044114 -5.589418
v -2.362971 1.044115 -5.589418
v 2.362970 0.871182 -6.275913
v -2.362971 0.871183 -6.275913
v 2.362970 0.679699 -6.957676
v -2.362970 0.679700 -6.957676
v 2.362971 0.470270 -7.635180
v -2.362971 0.470271 -7.635180
v 2.362971 0.243502 -8.308893
v -2.362971 0.243503 -8.308893
v 2.362970 0.201679 -8.424038
v -2.362971 0.201680 -8.424037
v -2.362970 0.469890 8.515148
v 2.362971 0.469890 8.515148
v 2.362971 0.575448 8.204772
v -2.362970 0.575449 8.204772
v 2.362971 0.842348 7.344862
v -2.362970 0.842349 7.344862
v 2.362971 1.079650 6.497865
v -2.362970 1.079650 6.497865
v 2.362971 1.287933 5.663325
v -2.362971 1.287934 5.663325
v 2.362970 1.467780 4.840791
v -2.362970 1.467781 4.840791
v 2.362971 1.619773 4.029816
v -2.362971 1.619773 4.029815
v 2.362971 1.744494 3.229959
v -2.362970 1.744494 3.229959
v 2.362971 1.842530 2.440781
v -2.362970 1.842531 2.440782
v 2.362970 1.914472 1.661853
v -2.362970 1.914472 1.661854
v 2.362970 1.960912 0.892744
v -2.362970 1.960912 0.892744
v 2.362970 1.982447 0.133027
v -2.362970 1.982448 0.133028
v 2.362970 1.979680 -0.617721
v -2.362971 1.979681 -0.617720
v 2.362970 1.953220 -1.359923
v -2.362971 1.953220 -1.359923
v 2.362970 1.903678 -2.094004
v -2.362971 1.903678 -2.094004
v 2.362971 1.831673 -2.820388
v -2.362972 1.831673 -2.820388
v 2.362970 1.737826 -3.539503
v -2.362971 1.737826 -3.539503
v 2.362971 1.622765 -4.251778
v -2.362972 1.622765 -4.251778
v 2.362970 1.487119 -4.957648
v -2.362971 1.487119 -4.957648
v 2.362970 1.331520 -5.657551
v -2.362971 1.331521 -5.657551
v 2.362970 1.156604 -6.351930
v -2.362971 1.156605 -6.351930
v 2.362970 0.963005 -7.041234
v -2.362970 0.963006 -7.041234
v 2.362971 0.751360 -7.725916
v -2.362971 0.751360 -7.725916
v 2.362971 0.521916 -8.407535
v -2.362971 0.521916 -8.407535
v 2.362971 0.479304 -8.524878
v -2.362971 0.479304 -8.524877
v -2.953713 0.279634 9.074415
v 2.953714 0.279633 9.074415
v 2.953713 0.575448 8.204772
v -2.953712 0.575449 8.204772
v 2.953714 0.842348 7.344862
v -2.953713 0.842349 7.344862
v 2.953713 1.079650 6.497865
v -2.953713 1.079650 6.497865
v 2.953714 1.287933 5.663325
v -2.953713 1.287934 5.663325
v 2.953713 1.467780 4.840791
v -2.953712 1.467781 4.840791
v 2.953714 1.619773 4.029816
v -2.953713 1.619773 4.029815
v 2.953713 1.744494 3.229958
v -2.953713 1.744494 3.229959
v 2.953713 1.842530 2.440781
v -2.953713 1.842531 2.440782
v 2.953713 1.914472 1.661853
v -2.953713 1.914472 1.661854
v 2.953713 1.960912 0.892744
v -2.953713 1.960912 0.892744
v 2.953713 1.982447 0.133027
v -2.953713 1.982448 0.133028
v 2.953713 1.979680 -0.617720
v -2.953714 1.979681 -0.617720
v 2.953713 1.953220 -1.359923
v -2.953714 1.953220 -1.359923
v 2.953713 1.903678 -2.094004
v -2.953714 1.903678 -2.094003
v 2.953713 1.831673 -2.820389
v -2.953714 1.831673 -2.820388
v 2.953713 1.737826 -3.539503
v -2.953713 1.737827 -3.539503
v 2.953713 1.622765 -4.251778
v -2.953714 1.622766 -4.251778
v 2.953713 1.487119 -4.957648
v -2.953714 1.487119 -4.957648
v 2.953713 1.331520 -5.657551
v -2.953714 1.331521 -5.657551
v 2.953713 1.156604 -6.351930
v -2.953714 1.156604 -6.351930
v 2.953712 0.963005 -7.041234
v -2.953713 0.963006 -7.041234
v 2.953713 0.751360 -7.725916
v -2.953713 0.751360 -7.725916
v 2.953713 0.522304 -8.406432
v -2.953713 0.522304 -8.406432
v 2.953712 0.277625 -9.080127
v -2.953713 0.277625 -9.080127
vt 0.958333 0.900000
vt 0.958333 0.100000
vt 0.965490 0.100000
vt 0.965490 0.900000
vt 0.026913 0.900000
vt 0.000000 1.000000
vt 0.000000 0.000000
vt 0.026913 0.100000
vt 0.041667 0.900000
vt 0.041667 1.000000
vt 0.041667 0.000000
vt 0.041667 0.100000
vt 0.083333 0.900000
vt 0.083333 1.000000
vt 0.083333 0.000000
vt 0.083333 0.100000
vt 0.125000 0.900000
vt 0.125000 1.000000
vt 0.125000 0.000000
vt 0.125000 0.100000
vt 0.166667 0.900000
vt 0.166667 1.000000
vt 0.166667 0.000000
vt 0.166667 0.100000
vt 0.208333 0.900000
vt 0.208333 1.000000
vt 0.208333 0.000000
vt 0.208333 0.100000
vt 0.250000 0.900000
vt 0.250000 1.000000
vt 0.250000 0.000000
vt 0.250000 0.100000
vt 0.291667 0.900000
vt 0.291667 1.000000
vt 0.291667 0.000000
vt 0.291667 0.100000
vt 0.333333 0.900000
vt 0.333333 1.000000
vt 0.333333 0.000000
vt 0.333333 0.100000
vt 0.375000 0.900000
vt 0.375000 1.000000
vt 0.375000 0.000000
vt 0.375000 0.100000
vt 0.416667 0.900000
vt 0.416667 1.000000
vt 0.416667 0.000000
vt 0.416667 0.100000
vt 0.458333 0.900000
vt 0.458333 1.000000
vt 0.458333 0.000000
vt 0.458333 0.100000
vt 0.500000 0.900000
vt 0.500000 1.000000
vt 0.500000 0.000000
vt 0.500000 0.100000
vt 0.541667 0.900000
vt 0.541667 1.000000
vt 0.541667 0.000000
vt 0.541667 0.100000
vt 0.583333 0.900000
vt 0.583333 1.000000
vt 0.583333 0.000000
vt 0.583333 0.100000
vt 0.625000 0.900000
vt 0.625000 1.000000
vt 0.625000 0.000000
vt 0.625000 0.100000
vt 0.666667 0.900000
vt 0.666667 1.000000
vt 0.666667 0.000000
vt 0.666667 0.100000
vt 0.708333 0.900000
vt 0.708333 1.000000
vt 0.708333 0.000000
vt 0.708333 0.100000
vt 0.750000 0.900000
vt 0.750000 1.000000
vt 0.750000 0.000000
vt 0.750000 0.100000
vt 0.791667 0.900000
vt 0.791667 1.000000
vt 0.791667 0.000000
vt 0.791667 0.100000
vt 0.833333 0.900000
vt 0.833333 1.000000
vt 0.833333 0.000000
vt 0.833333 0.100000
vt 0.875000 0.900000
vt 0.875000 1.000000
vt 0.875000 0.000000
vt 0.875000 0.100000
vt 0.916667 0.900000
vt 0.916667 1.000000
vt 0.916667 0.000000
vt 0.916667 0.100000
vt 0.958333 1.000000
vt 0.958333 0.000000
vt 1.000000 1.000000
vt 1.000000 0.000000
vt 0.958333 0.900000
vt 0.965490 0.900000
vt 0.965490 0.100000
vt 0.958333 0.100000
vt 0.026913 0.900000
vt 0.026913 0.100000
vt 0.000000 0.000000
vt 0.000000 1.000000
vt 0.041667 0.900000
vt 0.041667 1.000000
vt 0.041667 0.100000
vt 0.041667 0.000000
vt 0.083333 0.900000
vt 0.083333 1.000000
vt 0.083333 0.100000
vt 0.083333 0.000000
vt 0.125000 0.900000
vt 0.125000 1.000000
vt 0.125000 0.100000
vt 0.125000 0.000000
vt 0.166667 0.900000
vt 0.166667 1.000000
vt 0.166667 0.100000
vt 0.166667 0.000000
vt 0.208333 0.900000
vt 0.208333 1.000000
vt 0.208333 0.100000
vt 0.208333 0.000000
vt 0.250000 0.900000
vt 0.250000 1.000000
vt 0.250000 0.100000
vt 0.250000 0.000000
vt 0.291667 0.900000
vt 0.291667 1.000000
vt 0.291667 0.100000
vt 0.291667 0.000000
vt 0.333333 0.900000
vt 0.333333 1.000000
vt 0.333333 0.100000
vt 0.333333 0.000000
vt 0.375000 0.900000
vt 0.375000 1.000000
vt 0.375000 0.100000
vt 0.375000 0.000000
vt 0.416667 0.900000
vt 0.416667 1.000000
vt 0.416667 0.100000
vt 0.416667 0.000000
vt 0.458333 0.900000
vt 0.458333 1.000000
vt 0.458333 0.100000
vt 0.458333 0.000000
vt 0.500000 0.900000
vt 0.500000 1.000000
vt 0.500000 0.100000
vt 0.500000 0.000000
vt 0.541667 0.900000
vt 0.541667 1.000000
vt 0.541667 0.100000
vt 0.541667 0.000000
vt 0.583333 0.900000
vt 0.583333 1.000000
vt 0.583333 0.100000
vt 0.583333 0.000000
vt 0.625000 0.900000
vt 0.625000 1.000000
vt 0.625000 0.100000
vt 0.625000 0.000000
vt 0.666667 0.900000
vt 0.666667 1.000000
vt 0.666667 0.100000
vt 0.666667 0.000000
vt 0.708333 0.900000
vt 0.708333 1.000000
vt 0.708333 0.100000
vt 0.708333 0.000000
vt 0.750000 0.900000
vt 0.750000 1.000000
vt 0.750000 0.100000
vt 0.750000 0.000000
vt 0.791667 0.900000
vt 0.791667 1.000000
vt 0.791667 0.100000
vt 0.791667 0.000000
vt 0.833333 0.900000
vt 0.833333 1.000000
vt 0.833333 0.100000
vt 0.833333 0.000000
vt 0.875000 0.900000
vt 0.875000 1.000000
vt 0.875000 0.100000
vt 0.875000 0.000000
vt 0.916667 0.900000
vt 0.916667 1.000000
vt 0.916667 0.100000
vt 0.916667 0.000000
vt 0.958333 1.000000
vt 0.958333 0.000000
vt 1.000000 1.000000
vt 1.000000 0.000000
vn 0.0000 -0.9426 0.3340
vn -0.0000 -0.9399 0.3414
vn -0.0000 -0.9467 -0.3221
vn -0.0000 -0.9510 -0.3093
vn -0.0000 -0.9591 -0.2831
vn -0.0000 -0.9667 -0.2560
vn -0.0000 -0.9737 -0.2279
vn -0.0000 -0.9800 -0.1989
vn -0.0000 -0.9856 -0.1692
vn -0.0000 -0.9903 -0.1387
vn -0.0000 -0.9942 -0.1076
vn -0.0000 -0.9971 -0.0761
vn -0.0000 -0.9990 -0.0443
vn 0.0000 -0.9999 -0.0123
vn -0.0000 -0.9998 0.0197
vn 0.0000 -0.9987 0.0515
vn 0.0000 -0.9965 0.0830
vn 0.0000 -0.9935 0.1140
vn 0.0000 -0.9895 0.1445
vn -0.0000 -0.9847 0.1741
vn -0.0000 -0.9792 0.2029
vn -0.0000 -0.9730 0.2307
vn -0.0000 -0.9663 0.2574
vn -0.0000 -0.9592 0.2829
vn 0.0000 -0.9516 0.3072
vn 0.0000 -0.9439 0.3302
vn 0.0000 0.9426 -0.3339
vn 0.0000 0.9399 -0.3414
vn 0.0000 0.9467 0.3220
vn 0.0000 0.9510 0.3093
vn 0.0000 0.9591 0.2831
vn 0.0000 0.9667 0.2560
vn 0.0000 0.9737 0.2279
vn 0.0000 0.9800 0.1989
vn 0.0000 0.9856 0.1692
vn 0.0000 0.9903 0.1387
vn 0.0000 0.9942 0.1076
vn 0.0000 0.9971 0.0761
vn -0.0000 0.9990 0.0443
vn -0.0000 0.9999 0.0123
vn 0.0000 0.9998 -0.0197
vn 0.0000 0.9987 -0.0515
vn -0.0000 0.9965 -0.0830
vn -0.0000 0.9935 -0.1140
vn -0.0000 0.9895 -0.1445
vn -0.0000 0.9847 -0.1741
vn 0.0000 0.9792 -0.2029
vn 0.0000 0.9730 -0.2307
vn 0.0000 0.9663 -0.2574
vn 0.0000 0.9592 -0.2829
vn -0.0000 0.9516 -0.3072
vn 0.0000 0.9439 -0.3302
vn 1.0000 0.0000 -0.0000
vn -1.0000 -0.0000 0.0000
vn 0.0000 0.3340 0.9426
vn -0.0000 -0.3414 -0.9399
vn 0.0000 -0.3221 0.9467
vn -0.0000 0.3221 -0.9467
usemtl None
s 1
f 97/1/1 98/2/1 100/3/2 99/4/2
f 52/5/3 2/6/3 1/7/3 51/8/3
f 53/9/4 4/10/4 2/6/3 52/5/3
f 51/8/3 1/7/3 3/11/4 54/12/4
f 55/13/5 6/14/5 4/10/4 53/9/4
f 54/12/4 3/11/4 5/15/5 56/16/5
f 57/17/6 8/18/6 6/14/5 55/13/5
f 56/16/5 5/15/5 7/19/6 58/20/6
f 59/21/7 10/22/7 8/18/6 57/17/6
f 58/20/6 7/19/6 9/23/7 60/24/7
f 61/25/8 12/26/8 10/22/7 59/21/7
f 60/24/7 9/23/7 11/27/8 62/28/8
f 63/29/9 14/30/9 12/26/8 61/25/8
f 62/28/8 11/27/8 13/31/9 64/32/9
f 65/33/10 16/34/10 14/30/9 63/29/9
f 64/32/9 13/31/9 15/35/10 66/36/10
f 67/37/11 18/38/11 16/34/10 65/33/10
f 66/36/10 15/35/10 17/39/11 68/40/11
f 69/41/12 20/42/12 18/38/11 67/37/11
f 68/40/11 17/39/11 19/43/12 70/44/12
f 71/45/13 22/46/13 20/42/12 69/41/12
f 70/44/12 19/43/12 21/47/13 72/48/13
f 73/49/14 24/50/14 22/46/13 71/45/13
f 72/48/13 21/47/13 23/51/14 74/52/14
f 75/53/15 26/54/15 24/50/14 73/49/14
f 74/52/14 23/51/14 25/55/15 76/56/15
f 77/57/16 28/58/16 26/54/15 75/53/15
f 76/56/15 25/55/15 27/59/16 78/60/16
f 79/61/17 30/62/17 28/58/16 77/57/16
f 78/60/16 27/59/16 29/63/17 80/64/17
f 81/65/18 32/66/18 30/62/17 79/61/17
f 80/64/17 29/63/17 31/67/18 82/68/18
f 83/69/19 34/70/19 32/66/18 81/65/18
f 82/68/18 31/67/18 33/71/19 84/72/19
f 85/73/20 36/74/20 34/70/19 83/69/19
f 84/72/19 33/71/19 35/75/20 86/76/20
f 87/77/21 38/78/21 36/74/20 85/73/20
f 86/76/20 35/75/20 37/79/21 88/80/21
f 89/81/22 40/82/22 38/78/21 87/77/21
f 88/80/21 37/79/21 39/83/22 90/84/22
f 91/85/23 42/86/23 40/82/22 89/81/22
f 90/84/22 39/83/22 41/87/23 92/88/23
f 93/89/24 44/90/24 42/86/23 91/85/23
f 92/88/23 41/87/23 43/91/24 94/92/24
f 95/93/25 46/94/25 44/90/24 93/89/24
f 94/92/24 43/91/24 45/95/25 96/96/25
f 97/1/1 48/97/26 46/94/25 95/93/25
f 96/96/25 45/95/25 47/98/26 98/2/1
f 99/4/2 50/99/2 48/97/26 97/1/1
f 100/3/2 49/100/2 50/99/2 99/4/2
f 98/2/1 47/98/26 49/100/2 100/3/2
f 147/101/27 149/102/28 150/103/28 148/104/27
f 102/105/29 101/106/29 151/107/29 152/108/29
f 103/109/30 102/105/29 152/108/29 153/110/30
f 101/106/29 104/111/30 154/112/30 151/107/29
f 105/113/31 103/109/30 153/110/30 155/114/31
f 104/111/30 106/115/31 156/116/31 154/112/30
f 107/117/32 105/113/31 155/114/31 157/118/32
f 106/115/31 108/119/32 158/120/32 156/116/31
f 109/121/33 107/117/32 157/118/32 159/122/33
f 108/119/32 110/123/33 160/124/33 158/120/32
f 111/125/34 109/121/33 159/122/33 161/126/34
f 110/123/33 112/127/34 162/128/34 160/124/33
f 113/129/35 111/125/34 161/126/34 163/130/35
f 112/127/34 114/131/35 164/132/35 162/128/34
f 115/133/36 113/129/35 163/130/35 165/134/36
f 114/131/35 116/135/36 166/136/36 164/132/35
f 117/137/37 115/133/36 165/134/36 167/138/37
f 116/135/36 118/139/37 168/140/37 166/136/36
f 119/141/38 117/137/37 167/138/37 169/142/38
f 118/139/37 120/143/38 170/144/38 168/140/37
f 121/145/39 119/141/38 169/142/38 171/146/39
f 120/143/38 122/147/39 172/148/39 170/144/38
f 123/149/40 121/145/39 171/146/39 173/150/40
f 122/147/39 124/151/40 174/152/40 172/148/39
f 125/153/41 123/149/40 173/150/40 175/154/41
f 124/151/40 126/155/41 176/156/41 174/152/40
f 127/157/42 125/153/41 175/154/41 177/158/42
f 126/155/41 128/159/42 178/160/42 176/156/41
f 129/161/43 127/157/42 177/158/42 179/162/43
f 128/159/42 130/163/43 180/164/43 178/160/42
f 131/165/44 129/161/43 179/162/43 181/166/44
f 130/163/43 132/167/44 182/168/44 180/164/43
f 133/169/45 131/165/44 181/166/44 183/170/45
f 132/167/44 134/171/45 184/172/45 182/168/44
f 135/173/46 133/169/45 183/170/45 185/174/46
f 134/171/45 136/175/46 186/176/46 184/172/45
f 137/177/47 135/173/46 185/174/46 187/178/47
f 136/175/46 138/179/47 188/180/47 186/176/46
f 139/181/48 137/177/47 187/178/47 189/182/48
f 138/179/47 140/183/48 190/184/48 188/180/47
f 141/185/49 139/181/48 189/182/48 191/186/49
f 140/183/48 142/187/49 192/188/49 190/184/48
f 143/189/50 141/185/49 191/186/49 193/190/50
f 142/187/49 144/191/50 194/192/50 192/188/49
f 145/193/51 143/189/50 193/190/50 195/194/51
f 144/191/50 146/195/51 196/196/51 194/192/50
f 147/101/27 145/193/51 195/194/51 197/197/52
f 146/195/51 148/104/27 198/198/52 196/196/51
f 149/102/28 147/101/27 197/197/52 199/199/28
f 150/103/28 149/102/28 199/199/28 200/200/28
f 148/104/27 150/103/28 200/200/28 198/198/52
f 38/78/53 40/82/53 189/182/53 187/178/53
f 12/26/53 14/30/53 163/130/53 161/126/53
f 86/76/53 88/80/53 138/179/53 136/175/53
f 60/24/53 62/28/53 112/127/53 110/123/53
f 39/83/54 37/79/54 188/180/54 190/184/54
f 13/31/54 11/27/54 162/128/54 164/132/54
f 89/81/54 87/77/54 137/177/54 139/181/54
f 63/29/54 61/25/54 111/125/54 113/129/54
f 40/82/53 42/86/53 191/186/53 189/182/53
f 14/30/53 16/34/53 165/134/53 163/130/53
f 88/80/53 90/84/53 140/183/53 138/179/53
f 62/28/53 64/32/53 114/131/53 112/127/53
f 41/87/54 39/83/54 190/184/54 192/188/54
f 15/35/54 13/31/54 164/132/54 166/136/54
f 91/85/54 89/81/54 139/181/54 141/185/54
f 65/33/54 63/29/54 113/129/54 115/133/54
f 42/86/53 44/90/53 193/190/53 191/186/53
f 16/34/53 18/38/53 167/138/53 165/134/53
f 90/84/53 92/88/53 142/187/53 140/183/53
f 64/32/53 66/36/53 116/135/53 114/131/53
f 43/91/54 41/87/54 192/188/54 194/192/54
f 17/39/54 15/35/54 166/136/54 168/140/54
f 93/89/54 91/85/54 141/185/54 143/189/54
f 67/37/54 65/33/54 115/133/54 117/137/54
f 44/90/53 46/94/53 195/194/53 193/190/53
f 18/38/53 20/42/53 169/142/53 167/138/53
f 92/88/53 94/92/53 144/191/53 142/187/53
f 66/36/53 68/40/53 118/139/53 116/135/53
f 45/95/54 43/91/54 194/192/54 196/196/54
f 19/43/54 17/39/54 168/140/54 170/144/54
f 95/93/54 93/89/54 143/189/54 145/193/54
f 69/41/54 67/37/54 117/137/54 119/141/54
f 46/94/53 48/97/53 197/197/53 195/194/53
f 20/42/53 22/46/53 171/146/53 169/142/53
f 94/92/53 96/96/53 146/195/53 144/191/53
f 68/40/53 70/44/53 120/143/53 118/139/53
f 47/98/54 45/95/54 196/196/54 198/198/54
f 21/47/54 19/43/54 170/144/54 172/148/54
f 97/1/54 95/93/54 145/193/54 147/101/54
f 71/45/54 69/41/54 119/141/54 121/145/54
f 48/97/53 50/99/53 199/199/53 197/197/53
f 22/46/53 24/50/53 173/150/53 171/146/53
f 98/2/55 97/1/55 147/101/55 148/104/55
f 70/44/53 72/48/53 122/147/53 120/143/53
f 50/99/56 49/100/56 200/200/56 199/199/56
f 23/51/54 21/47/54 172/148/54 174/152/54
f 96/96/53 98/2/53 148/104/53 146/195/53
f 73/49/54 71/45/54 121/145/54 123/149/54
f 49/100/54 47/98/54 198/198/54 200/200/54
f 24/50/53 26/54/53 175/154/53 173/150/53
f 72/48/53 74/52/53 124/151/53 122/147/53
f 25/55/54 23/51/54 174/152/54 176/156/54
f 75/53/54 73/49/54 123/149/54 125/153/54
f 26/54/53 28/58/53 177/158/53 175/154/53
f 74/52/53 76/56/53 126/155/53 124/151/53
f 27/59/54 25/55/54 176/156/54 178/160/54
f 1/7/57 2/6/57 152/108/57 151/107/57
f 77/57/54 75/53/54 125/153/54 127/157/54
f 28/58/53 30/62/53 179/162/53 177/158/53
f 2/6/53 4/10/53 153/110/53 152/108/53
f 76/56/53 78/60/53 128/159/53 126/155/53
f 52/5/58 51/8/58 101/106/58 102/105/58
f 29/63/54 27/59/54 178/160/54 180/164/54
f 3/11/54 1/7/54 151/107/54 154/112/54
f 79/61/54 77/57/54 127/157/54 129/161/54
f 53/9/54 52/5/54 102/105/54 103/109/54
f 30/62/53 32/66/53 181/166/53 179/162/53
f 4/10/53 6/14/53 155/114/53 153/110/53
f 78/60/53 80/64/53 130/163/53 128/159/53
f 51/8/53 54/12/53 104/111/53 101/106/53
f 31/67/54 29/63/54 180/164/54 182/168/54
f 5/15/54 3/11/54 154/112/54 156/116/54
f 81/65/54 79/61/54 129/161/54 131/165/54
f 55/13/54 53/9/54 103/109/54 105/113/54
f 32/66/53 34/70/53 183/170/53 181/166/53
f 6/14/53 8/18/53 157/118/53 155/114/53
f 80/64/53 82/68/53 132/167/53 130/163/53
f 54/12/53 56/16/53 106/115/53 104/111/53
f 33/71/54 31/67/54 182/168/54 184/172/54
f 7/19/54 5/15/54 156/116/54 158/120/54
f 83/69/54 81/65/54 131/165/54 133/169/54
f 57/17/54 55/13/54 105/113/54 107/117/54
f 34/70/53 36/74/53 185/174/53 183/170/53
f 8/18/53 10/22/53 159/122/53 157/118/53
f 82/68/53 84/72/53 134/171/53 132/167/53
f 56/16/53 58/20/53 108/119/53 106/115/53
f 35/75/54 33/71/54 184/172/54 186/176/54
f 9/23/54 7/19/54 158/120/54 160/124/54
f 85/73/54 83/69/54 133/169/54 135/173/54
f 59/21/54 57/17/54 107/117/54 109/121/54
f 36/74/53 38/78/53 187/178/53 185/174/53
f 10/22/53 12/26/53 161/126/53 159/122/53
f 84/72/53 86/76/53 136/175/53 134/171/53
f 58/20/53 60/24/53 110/123/53 108/119/53
f 37/79/54 35/75/54 186/176/54 188/180/54
f 11/27/54 9/23/54 160/124/54 162/128/54
f 87/77/54 85/73/54 135/173/54 137/177/54
f 61/25/54 59/21/54 109/121/54 111/125/54
